<svg xmlns="http://www.w3.org/2000/svg" width="1600" height="1000" viewBox="0 0 1600 1000">
  <rect width="1600" height="1000" fill="#C9BDA6"/>
  <rect y="710" width="1600" height="290" fill="#805638"/>
  <g transform="translate(190 95) rotate(-4 270 370)">
    <rect x="15" y="20" width="540" height="740" rx="12" fill="#000" opacity=".18"/>
    <rect width="540" height="740" rx="12" fill="#181512"/>
    <circle cx="270" cy="205" r="100" fill="none" stroke="#E9DFC9" stroke-width="5"/>
    <path d="M200 225 C245 198 290 200 335 224" fill="none" stroke="#354C59" stroke-width="8" stroke-linecap="round"/>
    <path d="M318 140 L318 250" stroke="#E9DFC9" stroke-width="6" stroke-linecap="round"/>
    <path d="M318 118 l9 9 -9 9 -9-9z" fill="#D89A48"/>
    <text x="270" y="377" text-anchor="middle" fill="#E9DFC9" font-family="'Source Han Serif SC','Microsoft YaHei',serif" font-size="60" font-weight="600" letter-spacing="8">游味烧鸟</text>
    <text x="270" y="426" text-anchor="middle" fill="#D89A48" font-family="Arial,sans-serif" font-size="17" letter-spacing="5">YOU WEI · YAKITORI</text>
    <line x1="120" y1="500" x2="420" y2="500" stroke="#A66D3F"/>
    <text x="270" y="565" text-anchor="middle" fill="#E9DFC9" opacity=".78" font-family="'Microsoft YaHei',sans-serif" font-size="24" letter-spacing="5">游于后湖，味在人间</text>
  </g>
  <g transform="translate(780 120) rotate(3 270 340)">
    <rect x="12" y="18" width="540" height="680" fill="#000" opacity=".14"/>
    <rect width="540" height="680" fill="#E9DFC9"/>
    <text x="54" y="80" fill="#181512" font-family="'Source Han Serif SC','Microsoft YaHei',serif" font-size="42" font-weight="600">炭火烧鸟</text>
    <text x="54" y="116" fill="#805638" font-family="Arial,sans-serif" font-size="14" letter-spacing="5">YAKITORI</text>
    <path d="M470 55 l10 10 -10 10 -10-10z" fill="#D89A48"/>
    <g fill="#181512" font-family="'Microsoft YaHei',sans-serif" font-size="24">
      <text x="54" y="190">鸡腿葱串</text><text x="470" y="190" text-anchor="end">18</text>
      <text x="54" y="245">鸡皮</text><text x="470" y="245" text-anchor="end">16</text>
      <text x="54" y="300">提灯</text><text x="470" y="300" text-anchor="end">22</text>
      <text x="54" y="355">鸡软骨</text><text x="470" y="355" text-anchor="end">16</text>
      <text x="54" y="410">香菇</text><text x="470" y="410" text-anchor="end">12</text>
    </g>
    <g stroke="#A66D3F" opacity=".35"><line x1="54" y1="207" x2="470" y2="207"/><line x1="54" y1="262" x2="470" y2="262"/><line x1="54" y1="317" x2="470" y2="317"/><line x1="54" y1="372" x2="470" y2="372"/><line x1="54" y1="427" x2="470" y2="427"/></g>
    <text x="54" y="520" fill="#354C59" font-family="'Microsoft YaHei',sans-serif" font-size="22">今晚风刚好。</text>
    <path d="M54 575 C145 530 235 535 330 578 C383 602 430 603 480 582" fill="none" stroke="#354C59" stroke-width="4" opacity=".35"/>
  </g>
  <g transform="translate(1340 650)"><circle cx="0" cy="0" r="115" fill="#181512"/><circle cx="0" cy="0" r="90" fill="none" stroke="#E9DFC9" stroke-width="4"/><text x="0" y="-5" text-anchor="middle" fill="#E9DFC9" font-family="'Source Han Serif SC','Microsoft YaHei',serif" font-size="35">游味</text><text x="0" y="42" text-anchor="middle" fill="#D89A48" font-family="'Microsoft YaHei',sans-serif" font-size="20">一晚湖风</text></g>
  <g transform="translate(650 835) rotate(-8)"><rect x="0" y="0" width="620" height="74" rx="4" fill="#E9DFC9"/><path d="M35 37 l7 7 -7 7 -7-7z" fill="#D89A48"/><text x="75" y="47" fill="#181512" font-family="'Microsoft YaHei',sans-serif" font-size="22" letter-spacing="5">一串炭火，一晚湖风</text><g stroke="#805638" opacity=".35"><line x1="420" y1="12" x2="420" y2="62"/><line x1="445" y1="12" x2="445" y2="62"/><line x1="470" y1="12" x2="470" y2="62"/><line x1="495" y1="12" x2="495" y2="62"/><line x1="520" y1="12" x2="520" y2="62"/></g></g>
</svg>
