mtllib 游味烧鸟_固定空间骨架_V1.mtl
s off
o front_platform
g architecture_front_platform
usemtl platform_low
v 0.00000 0.00000 0.00000
v 10.60000 0.00000 0.00000
v 10.60000 1.85000 0.00000
v 0.00000 1.85000 0.00000
v 0.00000 0.00000 0.20000
v 10.60000 0.00000 0.20000
v 10.60000 1.85000 0.20000
v 0.00000 1.85000 0.20000
f 1 2 3 4
f 5 8 7 6
f 1 5 6 2
f 2 6 7 3
f 3 7 8 4
f 5 1 4 8
o rear_platform
g architecture_rear_platform
usemtl platform_high
v 0.00000 1.85000 0.00000
v 11.70000 1.85000 0.00000
v 11.70000 4.45000 0.00000
v 0.00000 4.45000 0.00000
v 0.00000 1.85000 0.40000
v 11.70000 1.85000 0.40000
v 11.70000 4.45000 0.40000
v 0.00000 4.45000 0.40000
f 9 10 11 12
f 13 16 15 14
f 9 13 14 10
f 10 14 15 11
f 11 15 16 12
f 13 9 12 16
o central_transition_step
g architecture_central_transition_step
usemtl wood_light
v 5.10000 1.64000 0.20000
v 7.20000 1.64000 0.20000
v 7.20000 1.92000 0.20000
v 5.10000 1.92000 0.20000
v 5.10000 1.64000 0.36000
v 7.20000 1.64000 0.36000
v 7.20000 1.92000 0.36000
v 5.10000 1.92000 0.36000
f 17 18 19 20
f 21 24 23 22
f 17 21 22 18
f 18 22 23 19
f 19 23 24 20
f 21 17 20 24
o rear_lounge_wall
g architecture_rear_lounge_wall
usemtl wall
v 1.15000 4.35000 0.40500
v 7.35000 4.35000 0.40500
v 7.35000 4.45000 0.40500
v 1.15000 4.45000 0.40500
v 1.15000 4.35000 2.75500
v 7.35000 4.35000 2.75500
v 7.35000 4.45000 2.75500
v 1.15000 4.45000 2.75500
f 25 26 27 28
f 29 32 31 30
f 25 29 30 26
f 26 30 31 27
f 27 31 32 28
f 29 25 28 32
o rear_kitchen_wall
g architecture_rear_kitchen_wall
usemtl black
v 7.50000 4.34000 0.40500
v 11.60000 4.34000 0.40500
v 11.60000 4.46000 0.40500
v 7.50000 4.46000 0.40500
v 7.50000 4.34000 2.75500
v 11.60000 4.34000 2.75500
v 11.60000 4.46000 2.75500
v 7.50000 4.46000 2.75500
f 33 34 35 36
f 37 40 39 38
f 33 37 38 34
f 34 38 39 35
f 35 39 40 36
f 37 33 36 40
o right_kitchen_wall
g architecture_right_kitchen_wall
usemtl black
v 11.58000 1.90000 0.40000
v 11.70000 1.90000 0.40000
v 11.70000 4.40000 0.40000
v 11.58000 4.40000 0.40000
v 11.58000 1.90000 2.70000
v 11.70000 1.90000 2.70000
v 11.70000 4.40000 2.70000
v 11.58000 4.40000 2.70000
f 41 42 43 44
f 45 48 47 46
f 41 45 46 42
f 42 46 47 43
f 43 47 48 44
f 45 41 44 48
o left_front_planter
g landscape_left_front_planter
usemtl plant
v 0.00000 0.00000 0.00000
v 5.20000 0.00000 0.00000
v 5.20000 0.32000 0.00000
v 0.00000 0.32000 0.00000
v 0.00000 0.00000 0.56000
v 5.20000 0.00000 0.56000
v 5.20000 0.32000 0.56000
v 0.00000 0.32000 0.56000
f 49 50 51 52
f 53 56 55 54
f 49 53 54 50
f 50 54 55 51
f 51 55 56 52
f 53 49 52 56
o left_side_planter
g landscape_left_side_planter
usemtl plant
v 0.00000 0.32500 0.00000
v 0.32000 0.32500 0.00000
v 0.32000 2.77500 0.00000
v 0.00000 2.77500 0.00000
v 0.00000 0.32500 0.56000
v 0.32000 0.32500 0.56000
v 0.32000 2.77500 0.56000
v 0.00000 2.77500 0.56000
f 57 58 59 60
f 61 64 63 62
f 57 61 62 58
f 58 62 63 59
f 59 63 64 60
f 61 57 60 64
o horizontal_lake_bar
g counter_horizontal_lake_bar
usemtl wood_light
v 1.00000 0.63000 0.20000
v 4.60000 0.63000 0.20000
v 4.60000 0.93000 0.20000
v 1.00000 0.93000 0.20000
v 1.00000 0.63000 1.10000
v 4.60000 0.63000 1.10000
v 4.60000 0.93000 1.10000
v 1.00000 0.93000 1.10000
f 65 66 67 68
f 69 72 71 70
f 65 69 70 66
f 66 70 71 67
f 67 71 72 68
f 69 65 68 72
o lake_bar_stool_1
g seating_lake_bar_stool_1
usemtl dark_wood
v 1.37500 1.07500 0.20000
v 1.82500 1.07500 0.20000
v 1.82500 1.52500 0.20000
v 1.37500 1.52500 0.20000
v 1.37500 1.07500 0.76000
v 1.82500 1.07500 0.76000
v 1.82500 1.52500 0.76000
v 1.37500 1.52500 0.76000
f 73 74 75 76
f 77 80 79 78
f 73 77 78 74
f 74 78 79 75
f 75 79 80 76
f 77 73 76 80
o lake_bar_stool_2
g seating_lake_bar_stool_2
usemtl dark_wood
v 1.97500 1.07500 0.20000
v 2.42500 1.07500 0.20000
v 2.42500 1.52500 0.20000
v 1.97500 1.52500 0.20000
v 1.97500 1.07500 0.76000
v 2.42500 1.07500 0.76000
v 2.42500 1.52500 0.76000
v 1.97500 1.52500 0.76000
f 81 82 83 84
f 85 88 87 86
f 81 85 86 82
f 82 86 87 83
f 83 87 88 84
f 85 81 84 88
o lake_bar_stool_3
g seating_lake_bar_stool_3
usemtl dark_wood
v 2.57500 1.07500 0.20000
v 3.02500 1.07500 0.20000
v 3.02500 1.52500 0.20000
v 2.57500 1.52500 0.20000
v 2.57500 1.07500 0.76000
v 3.02500 1.07500 0.76000
v 3.02500 1.52500 0.76000
v 2.57500 1.52500 0.76000
f 89 90 91 92
f 93 96 95 94
f 89 93 94 90
f 90 94 95 91
f 91 95 96 92
f 93 89 92 96
o lake_bar_stool_4
g seating_lake_bar_stool_4
usemtl dark_wood
v 3.17500 1.07500 0.20000
v 3.62500 1.07500 0.20000
v 3.62500 1.52500 0.20000
v 3.17500 1.52500 0.20000
v 3.17500 1.07500 0.76000
v 3.62500 1.07500 0.76000
v 3.62500 1.52500 0.76000
v 3.17500 1.52500 0.76000
f 97 98 99 100
f 101 104 103 102
f 97 101 102 98
f 98 102 103 99
f 99 103 104 100
f 101 97 100 104
o lake_bar_stool_5
g seating_lake_bar_stool_5
usemtl dark_wood
v 3.77500 1.07500 0.20000
v 4.22500 1.07500 0.20000
v 4.22500 1.52500 0.20000
v 3.77500 1.52500 0.20000
v 3.77500 1.07500 0.76000
v 4.22500 1.07500 0.76000
v 4.22500 1.52500 0.76000
v 3.77500 1.52500 0.76000
f 105 106 107 108
f 109 112 111 110
f 105 109 110 106
f 106 110 111 107
f 107 111 112 108
f 109 105 108 112
o left_lounge_rug
g furniture_left_lounge_rug
usemtl rug
v 0.67500 2.42500 0.41000
v 3.62500 2.42500 0.41000
v 3.62500 4.07500 0.41000
v 0.67500 4.07500 0.41000
v 0.67500 2.42500 0.45000
v 3.62500 2.42500 0.45000
v 3.62500 4.07500 0.45000
v 0.67500 4.07500 0.45000
f 113 114 115 116
f 117 120 119 118
f 113 117 118 114
f 114 118 119 115
f 115 119 120 116
f 117 113 116 120
o left_lounge_sofa_seat
g furniture_left_lounge_sofa_seat
usemtl sofa
v 1.15000 3.48000 0.53000
v 3.15000 3.48000 0.53000
v 3.15000 4.20000 0.53000
v 1.15000 4.20000 0.53000
v 1.15000 3.48000 0.87000
v 3.15000 3.48000 0.87000
v 3.15000 4.20000 0.87000
v 1.15000 4.20000 0.87000
f 121 122 123 124
f 125 128 127 126
f 121 125 126 122
f 122 126 127 123
f 123 127 128 124
f 125 121 124 128
o left_lounge_sofa_back
g furniture_left_lounge_sofa_back
usemtl sofa
v 1.15000 4.05000 0.64000
v 3.15000 4.05000 0.64000
v 3.15000 4.21000 0.64000
v 1.15000 4.21000 0.64000
v 1.15000 4.05000 1.36000
v 3.15000 4.05000 1.36000
v 3.15000 4.21000 1.36000
v 1.15000 4.21000 1.36000
f 129 130 131 132
f 133 136 135 134
f 129 133 134 130
f 130 134 135 131
f 131 135 136 132
f 133 129 132 136
o left_lounge_armchair_L_seat
g furniture_left_lounge_armchair_L_seat
usemtl sofa
v 0.65000 2.75000 0.52000
v 1.25000 2.75000 0.52000
v 1.25000 3.35000 0.52000
v 0.65000 3.35000 0.52000
v 0.65000 2.75000 0.84000
v 1.25000 2.75000 0.84000
v 1.25000 3.35000 0.84000
v 0.65000 3.35000 0.84000
f 137 138 139 140
f 141 144 143 142
f 137 141 142 138
f 138 142 143 139
f 139 143 144 140
f 141 137 140 144
o left_lounge_armchair_L_back
g furniture_left_lounge_armchair_L_back
usemtl sofa
v 0.65000 3.24000 0.64000
v 1.25000 3.24000 0.64000
v 1.25000 3.36000 0.64000
v 0.65000 3.36000 0.64000
v 0.65000 3.24000 1.26000
v 1.25000 3.24000 1.26000
v 1.25000 3.36000 1.26000
v 0.65000 3.36000 1.26000
f 145 146 147 148
f 149 152 151 150
f 145 149 150 146
f 146 150 151 147
f 147 151 152 148
f 149 145 148 152
o left_lounge_armchair_R_seat
g furniture_left_lounge_armchair_R_seat
usemtl sofa
v 3.05000 2.75000 0.52000
v 3.65000 2.75000 0.52000
v 3.65000 3.35000 0.52000
v 3.05000 3.35000 0.52000
v 3.05000 2.75000 0.84000
v 3.65000 2.75000 0.84000
v 3.65000 3.35000 0.84000
v 3.05000 3.35000 0.84000
f 153 154 155 156
f 157 160 159 158
f 153 157 158 154
f 154 158 159 155
f 155 159 160 156
f 157 153 156 160
o left_lounge_armchair_R_back
g furniture_left_lounge_armchair_R_back
usemtl sofa
v 3.05000 3.24000 0.64000
v 3.65000 3.24000 0.64000
v 3.65000 3.36000 0.64000
v 3.05000 3.36000 0.64000
v 3.05000 3.24000 1.26000
v 3.65000 3.24000 1.26000
v 3.65000 3.36000 1.26000
v 3.05000 3.36000 1.26000
f 161 162 163 164
f 165 168 167 166
f 161 165 166 162
f 162 166 167 163
f 163 167 168 164
f 165 161 164 168
o left_lounge_tea_table
g furniture_left_lounge_tea_table
usemtl dark_wood
v 1.65000 2.58000 0.52000
v 2.65000 2.58000 0.52000
v 2.65000 3.06000 0.52000
v 1.65000 3.06000 0.52000
v 1.65000 2.58000 0.82000
v 2.65000 2.58000 0.82000
v 2.65000 3.06000 0.82000
v 1.65000 3.06000 0.82000
f 169 170 171 172
f 173 176 175 174
f 169 173 174 170
f 170 174 175 171
f 171 175 176 172
f 173 169 172 176
o central_lounge_rug
g furniture_central_lounge_rug
usemtl rug
v 3.97500 2.42500 0.41000
v 6.92500 2.42500 0.41000
v 6.92500 4.07500 0.41000
v 3.97500 4.07500 0.41000
v 3.97500 2.42500 0.45000
v 6.92500 2.42500 0.45000
v 6.92500 4.07500 0.45000
v 3.97500 4.07500 0.45000
f 177 178 179 180
f 181 184 183 182
f 177 181 182 178
f 178 182 183 179
f 179 183 184 180
f 181 177 180 184
o central_lounge_sofa_seat
g furniture_central_lounge_sofa_seat
usemtl sofa
v 4.45000 3.48000 0.53000
v 6.45000 3.48000 0.53000
v 6.45000 4.20000 0.53000
v 4.45000 4.20000 0.53000
v 4.45000 3.48000 0.87000
v 6.45000 3.48000 0.87000
v 6.45000 4.20000 0.87000
v 4.45000 4.20000 0.87000
f 185 186 187 188
f 189 192 191 190
f 185 189 190 186
f 186 190 191 187
f 187 191 192 188
f 189 185 188 192
o central_lounge_sofa_back
g furniture_central_lounge_sofa_back
usemtl sofa
v 4.45000 4.05000 0.64000
v 6.45000 4.05000 0.64000
v 6.45000 4.21000 0.64000
v 4.45000 4.21000 0.64000
v 4.45000 4.05000 1.36000
v 6.45000 4.05000 1.36000
v 6.45000 4.21000 1.36000
v 4.45000 4.21000 1.36000
f 193 194 195 196
f 197 200 199 198
f 193 197 198 194
f 194 198 199 195
f 195 199 200 196
f 197 193 196 200
o central_lounge_armchair_L_seat
g furniture_central_lounge_armchair_L_seat
usemtl sofa
v 3.95000 2.75000 0.52000
v 4.55000 2.75000 0.52000
v 4.55000 3.35000 0.52000
v 3.95000 3.35000 0.52000
v 3.95000 2.75000 0.84000
v 4.55000 2.75000 0.84000
v 4.55000 3.35000 0.84000
v 3.95000 3.35000 0.84000
f 201 202 203 204
f 205 208 207 206
f 201 205 206 202
f 202 206 207 203
f 203 207 208 204
f 205 201 204 208
o central_lounge_armchair_L_back
g furniture_central_lounge_armchair_L_back
usemtl sofa
v 3.95000 3.24000 0.64000
v 4.55000 3.24000 0.64000
v 4.55000 3.36000 0.64000
v 3.95000 3.36000 0.64000
v 3.95000 3.24000 1.26000
v 4.55000 3.24000 1.26000
v 4.55000 3.36000 1.26000
v 3.95000 3.36000 1.26000
f 209 210 211 212
f 213 216 215 214
f 209 213 214 210
f 210 214 215 211
f 211 215 216 212
f 213 209 212 216
o central_lounge_armchair_R_seat
g furniture_central_lounge_armchair_R_seat
usemtl sofa
v 6.35000 2.75000 0.52000
v 6.95000 2.75000 0.52000
v 6.95000 3.35000 0.52000
v 6.35000 3.35000 0.52000
v 6.35000 2.75000 0.84000
v 6.95000 2.75000 0.84000
v 6.95000 3.35000 0.84000
v 6.35000 3.35000 0.84000
f 217 218 219 220
f 221 224 223 222
f 217 221 222 218
f 218 222 223 219
f 219 223 224 220
f 221 217 220 224
o central_lounge_armchair_R_back
g furniture_central_lounge_armchair_R_back
usemtl sofa
v 6.35000 3.24000 0.64000
v 6.95000 3.24000 0.64000
v 6.95000 3.36000 0.64000
v 6.35000 3.36000 0.64000
v 6.35000 3.24000 1.26000
v 6.95000 3.24000 1.26000
v 6.95000 3.36000 1.26000
v 6.35000 3.36000 1.26000
f 225 226 227 228
f 229 232 231 230
f 225 229 230 226
f 226 230 231 227
f 227 231 232 228
f 229 225 228 232
o central_lounge_tea_table
g furniture_central_lounge_tea_table
usemtl dark_wood
v 4.95000 2.58000 0.52000
v 5.95000 2.58000 0.52000
v 5.95000 3.06000 0.52000
v 4.95000 3.06000 0.52000
v 4.95000 2.58000 0.82000
v 5.95000 2.58000 0.82000
v 5.95000 3.06000 0.82000
v 4.95000 3.06000 0.82000
f 233 234 235 236
f 237 240 239 238
f 233 237 238 234
f 234 238 239 235
f 235 239 240 236
f 237 233 236 240
o central_entry_aisle_marker
g guide_central_entry_aisle_marker
usemtl accent
v 5.22500 0.00000 0.20000
v 7.27500 0.00000 0.20000
v 7.27500 2.50000 0.20000
v 5.22500 2.50000 0.20000
v 5.22500 0.00000 0.21000
v 7.27500 0.00000 0.21000
v 7.27500 2.50000 0.21000
v 5.22500 2.50000 0.21000
f 241 242 243 244
f 245 248 247 246
f 241 245 246 242
f 242 246 247 243
f 243 247 248 244
f 245 241 244 248
o boardfront_counter
g counter_boardfront_counter
usemtl counter
v 7.94500 0.57500 0.40000
v 8.49500 0.57500 0.40000
v 8.49500 4.32500 0.40000
v 7.94500 4.32500 0.40000
v 7.94500 0.57500 1.20000
v 8.49500 0.57500 1.20000
v 8.49500 4.32500 1.20000
v 7.94500 4.32500 1.20000
f 249 250 251 252
f 253 256 255 254
f 249 253 254 250
f 250 254 255 251
f 251 255 256 252
f 253 249 252 256
o boardfront_service_ridge
g counter_boardfront_service_ridge
usemtl wood_light
v 8.49000 0.57500 1.16000
v 8.67000 0.57500 1.16000
v 8.67000 4.32500 1.16000
v 8.49000 4.32500 1.16000
v 8.49000 0.57500 1.24000
v 8.67000 0.57500 1.24000
v 8.67000 4.32500 1.24000
v 8.49000 4.32500 1.24000
f 257 258 259 260
f 261 264 263 262
f 257 261 262 258
f 258 262 263 259
f 259 263 264 260
f 261 257 260 264
o boardfront_guest_stool_1
g seating_boardfront_guest_stool_1
usemtl dark_wood
v 7.42000 0.71000 0.20000
v 7.90000 0.71000 0.20000
v 7.90000 1.19000 0.20000
v 7.42000 1.19000 0.20000
v 7.42000 0.71000 0.92000
v 7.90000 0.71000 0.92000
v 7.90000 1.19000 0.92000
v 7.42000 1.19000 0.92000
f 265 266 267 268
f 269 272 271 270
f 265 269 270 266
f 266 270 271 267
f 267 271 272 268
f 269 265 268 272
o boardfront_guest_stool_2
g seating_boardfront_guest_stool_2
usemtl dark_wood
v 7.42000 1.44000 0.20000
v 7.90000 1.44000 0.20000
v 7.90000 1.92000 0.20000
v 7.42000 1.92000 0.20000
v 7.42000 1.44000 0.92000
v 7.90000 1.44000 0.92000
v 7.90000 1.92000 0.92000
v 7.42000 1.92000 0.92000
f 273 274 275 276
f 277 280 279 278
f 273 277 278 274
f 274 278 279 275
f 275 279 280 276
f 277 273 276 280
o boardfront_guest_stool_3
g seating_boardfront_guest_stool_3
usemtl dark_wood
v 7.42000 2.17000 0.20000
v 7.90000 2.17000 0.20000
v 7.90000 2.65000 0.20000
v 7.42000 2.65000 0.20000
v 7.42000 2.17000 0.92000
v 7.90000 2.17000 0.92000
v 7.90000 2.65000 0.92000
v 7.42000 2.65000 0.92000
f 281 282 283 284
f 285 288 287 286
f 281 285 286 282
f 282 286 287 283
f 283 287 288 284
f 285 281 284 288
o boardfront_guest_stool_4
g seating_boardfront_guest_stool_4
usemtl dark_wood
v 7.42000 2.90000 0.20000
v 7.90000 2.90000 0.20000
v 7.90000 3.38000 0.20000
v 7.42000 3.38000 0.20000
v 7.42000 2.90000 0.92000
v 7.90000 2.90000 0.92000
v 7.90000 3.38000 0.92000
v 7.42000 3.38000 0.92000
f 289 290 291 292
f 293 296 295 294
f 289 293 294 290
f 290 294 295 291
f 291 295 296 292
f 293 289 292 296
o boardfront_guest_stool_5
g seating_boardfront_guest_stool_5
usemtl dark_wood
v 7.42000 3.63000 0.20000
v 7.90000 3.63000 0.20000
v 7.90000 4.11000 0.20000
v 7.42000 4.11000 0.20000
v 7.42000 3.63000 0.92000
v 7.90000 3.63000 0.92000
v 7.90000 4.11000 0.92000
v 7.42000 4.11000 0.92000
f 297 298 299 300
f 301 304 303 302
f 297 301 302 298
f 298 302 303 299
f 299 303 304 300
f 301 297 300 304
o kitchen_worktop
g kitchen_kitchen_worktop
usemtl dark_wood
v 9.75500 0.60000 0.40000
v 10.40500 0.60000 0.40000
v 10.40500 4.40000 0.40000
v 9.75500 4.40000 0.40000
v 9.75500 0.60000 1.36000
v 10.40500 0.60000 1.36000
v 10.40500 4.40000 1.36000
v 9.75500 4.40000 1.36000
f 305 306 307 308
f 309 312 311 310
f 305 309 310 306
f 306 310 311 307
f 307 311 312 308
f 309 305 308 312
o yakitori_grill
g kitchen_yakitori_grill
usemtl black
v 10.00000 2.92500 0.96000
v 10.70000 2.92500 0.96000
v 10.70000 4.17500 0.96000
v 10.00000 4.17500 0.96000
v 10.00000 2.92500 1.30000
v 10.70000 2.92500 1.30000
v 10.70000 4.17500 1.30000
v 10.00000 4.17500 1.30000
f 313 314 315 316
f 317 320 319 318
f 313 317 318 314
f 314 318 319 315
f 315 319 320 316
f 317 313 316 320
o sink
g kitchen_sink
usemtl metal
v 9.87000 0.95000 0.99000
v 10.39000 0.95000 0.99000
v 10.39000 1.65000 0.99000
v 9.87000 1.65000 0.99000
v 9.87000 0.95000 1.11000
v 10.39000 0.95000 1.11000
v 10.39000 1.65000 1.11000
v 9.87000 1.65000 1.11000
f 321 322 323 324
f 325 328 327 326
f 321 325 326 322
f 322 326 327 323
f 323 327 328 324
f 325 321 324 328
o rear_bottle_shelf
g kitchen_rear_bottle_shelf
usemtl dark_wood
v 10.25000 1.77500 1.29500
v 11.45000 1.77500 1.29500
v 11.45000 4.32500 1.29500
v 10.25000 4.32500 1.29500
v 10.25000 1.77500 2.34500
v 11.45000 1.77500 2.34500
v 11.45000 4.32500 2.34500
v 10.25000 4.32500 2.34500
f 329 330 331 332
f 333 336 335 334
f 329 333 334 330
f 330 334 335 331
f 331 335 336 332
f 333 329 332 336
o display_fridge_base
g display_display_fridge_base
usemtl wood_light
v 9.62000 -0.90000 0.00000
v 11.62000 -0.90000 0.00000
v 11.62000 0.00000 0.00000
v 9.62000 0.00000 0.00000
v 9.62000 -0.90000 0.86000
v 11.62000 -0.90000 0.86000
v 11.62000 0.00000 0.86000
v 9.62000 0.00000 0.86000
f 337 338 339 340
f 341 344 343 342
f 337 341 342 338
f 338 342 343 339
f 339 343 344 340
f 341 337 340 344
o display_fridge_glass
g display_display_fridge_glass
usemtl glass
v 9.67000 -0.86000 0.82000
v 11.57000 -0.86000 0.82000
v 11.57000 -0.04000 0.82000
v 9.67000 -0.04000 0.82000
v 9.67000 -0.86000 1.54000
v 11.57000 -0.86000 1.54000
v 11.57000 -0.04000 1.54000
v 9.67000 -0.04000 1.54000
f 345 346 347 348
f 349 352 351 350
f 345 349 350 346
f 346 350 351 347
f 347 351 352 348
f 349 345 348 352
o post_0.10_0.10
g roof_post_0.10_0.10
usemtl wood
v 0.02000 0.02000 0.19000
v 0.18000 0.02000 0.19000
v 0.18000 0.18000 0.19000
v 0.02000 0.18000 0.19000
v 0.02000 0.02000 2.89000
v 0.18000 0.02000 2.89000
v 0.18000 0.18000 2.89000
v 0.02000 0.18000 2.89000
f 353 354 355 356
f 357 360 359 358
f 353 357 358 354
f 354 358 359 355
f 355 359 360 356
f 357 353 356 360
o post_0.10_4.35
g roof_post_0.10_4.35
usemtl wood
v 0.02000 4.27000 0.19000
v 0.18000 4.27000 0.19000
v 0.18000 4.43000 0.19000
v 0.02000 4.43000 0.19000
v 0.02000 4.27000 2.89000
v 0.18000 4.27000 2.89000
v 0.18000 4.43000 2.89000
v 0.02000 4.43000 2.89000
f 361 362 363 364
f 365 368 367 366
f 361 365 366 362
f 362 366 367 363
f 363 367 368 364
f 365 361 364 368
o post_3.35_0.10
g roof_post_3.35_0.10
usemtl wood
v 3.27000 0.02000 0.19000
v 3.43000 0.02000 0.19000
v 3.43000 0.18000 0.19000
v 3.27000 0.18000 0.19000
v 3.27000 0.02000 2.89000
v 3.43000 0.02000 2.89000
v 3.43000 0.18000 2.89000
v 3.27000 0.18000 2.89000
f 369 370 371 372
f 373 376 375 374
f 369 373 374 370
f 370 374 375 371
f 371 375 376 372
f 373 369 372 376
o post_3.35_4.35
g roof_post_3.35_4.35
usemtl wood
v 3.27000 4.27000 0.19000
v 3.43000 4.27000 0.19000
v 3.43000 4.43000 0.19000
v 3.27000 4.43000 0.19000
v 3.27000 4.27000 2.89000
v 3.43000 4.27000 2.89000
v 3.43000 4.43000 2.89000
v 3.27000 4.43000 2.89000
f 377 378 379 380
f 381 384 383 382
f 377 381 382 378
f 378 382 383 379
f 379 383 384 380
f 381 377 380 384
o post_7.25_0.10
g roof_post_7.25_0.10
usemtl wood
v 7.17000 0.02000 0.19000
v 7.33000 0.02000 0.19000
v 7.33000 0.18000 0.19000
v 7.17000 0.18000 0.19000
v 7.17000 0.02000 2.89000
v 7.33000 0.02000 2.89000
v 7.33000 0.18000 2.89000
v 7.17000 0.18000 2.89000
f 385 386 387 388
f 389 392 391 390
f 385 389 390 386
f 386 390 391 387
f 387 391 392 388
f 389 385 388 392
o post_7.25_4.35
g roof_post_7.25_4.35
usemtl wood
v 7.17000 4.27000 0.19000
v 7.33000 4.27000 0.19000
v 7.33000 4.43000 0.19000
v 7.17000 4.43000 0.19000
v 7.17000 4.27000 2.89000
v 7.33000 4.27000 2.89000
v 7.33000 4.43000 2.89000
v 7.17000 4.43000 2.89000
f 393 394 395 396
f 397 400 399 398
f 393 397 398 394
f 394 398 399 395
f 395 399 400 396
f 397 393 396 400
o post_11.60_0.10
g roof_post_11.60_0.10
usemtl wood
v 11.52000 0.02000 0.19000
v 11.68000 0.02000 0.19000
v 11.68000 0.18000 0.19000
v 11.52000 0.18000 0.19000
v 11.52000 0.02000 2.89000
v 11.68000 0.02000 2.89000
v 11.68000 0.18000 2.89000
v 11.52000 0.18000 2.89000
f 401 402 403 404
f 405 408 407 406
f 401 405 406 402
f 402 406 407 403
f 403 407 408 404
f 405 401 404 408
o post_11.60_4.35
g roof_post_11.60_4.35
usemtl wood
v 11.52000 4.27000 0.19000
v 11.68000 4.27000 0.19000
v 11.68000 4.43000 0.19000
v 11.52000 4.43000 0.19000
v 11.52000 4.27000 2.89000
v 11.68000 4.27000 2.89000
v 11.68000 4.43000 2.89000
v 11.52000 4.43000 2.89000
f 409 410 411 412
f 413 416 415 414
f 409 413 414 410
f 410 414 415 411
f 411 415 416 412
f 413 409 412 416
o main_beam_y_0.12
g roof_main_beam_y_0.12
usemtl wood
v 0.00000 0.03000 2.79000
v 11.70000 0.03000 2.79000
v 11.70000 0.21000 2.79000
v 0.00000 0.21000 2.79000
v 0.00000 0.03000 3.01000
v 11.70000 0.03000 3.01000
v 11.70000 0.21000 3.01000
v 0.00000 0.21000 3.01000
f 417 418 419 420
f 421 424 423 422
f 417 421 422 418
f 418 422 423 419
f 419 423 424 420
f 421 417 420 424
o main_beam_y_1.85
g roof_main_beam_y_1.85
usemtl wood
v 0.00000 1.76000 2.79000
v 11.70000 1.76000 2.79000
v 11.70000 1.94000 2.79000
v 0.00000 1.94000 2.79000
v 0.00000 1.76000 3.01000
v 11.70000 1.76000 3.01000
v 11.70000 1.94000 3.01000
v 0.00000 1.94000 3.01000
f 425 426 427 428
f 429 432 431 430
f 425 429 430 426
f 426 430 431 427
f 427 431 432 428
f 429 425 428 432
o main_beam_y_4.35
g roof_main_beam_y_4.35
usemtl wood
v 0.00000 4.26000 2.79000
v 11.70000 4.26000 2.79000
v 11.70000 4.44000 2.79000
v 0.00000 4.44000 2.79000
v 0.00000 4.26000 3.01000
v 11.70000 4.26000 3.01000
v 11.70000 4.44000 3.01000
v 0.00000 4.44000 3.01000
f 433 434 435 436
f 437 440 439 438
f 433 437 438 434
f 434 438 439 435
f 435 439 440 436
f 437 433 436 440
o rafter_01
g roof_rafter_01
usemtl wood
v 0.13000 -0.12000 2.96000
v 0.23000 -0.12000 2.96000
v 0.23000 4.58000 2.96000
v 0.13000 4.58000 2.96000
v 0.13000 -0.12000 3.08000
v 0.23000 -0.12000 3.08000
v 0.23000 4.58000 3.08000
v 0.13000 4.58000 3.08000
f 441 442 443 444
f 445 448 447 446
f 441 445 446 442
f 442 446 447 443
f 443 447 448 444
f 445 441 444 448
o rafter_02
g roof_rafter_02
usemtl wood
v 0.79706 -0.12000 2.96000
v 0.89706 -0.12000 2.96000
v 0.89706 4.58000 2.96000
v 0.79706 4.58000 2.96000
v 0.79706 -0.12000 3.08000
v 0.89706 -0.12000 3.08000
v 0.89706 4.58000 3.08000
v 0.79706 4.58000 3.08000
f 449 450 451 452
f 453 456 455 454
f 449 453 454 450
f 450 454 455 451
f 451 455 456 452
f 453 449 452 456
o rafter_03
g roof_rafter_03
usemtl wood
v 1.46412 -0.12000 2.96000
v 1.56412 -0.12000 2.96000
v 1.56412 4.58000 2.96000
v 1.46412 4.58000 2.96000
v 1.46412 -0.12000 3.08000
v 1.56412 -0.12000 3.08000
v 1.56412 4.58000 3.08000
v 1.46412 4.58000 3.08000
f 457 458 459 460
f 461 464 463 462
f 457 461 462 458
f 458 462 463 459
f 459 463 464 460
f 461 457 460 464
o rafter_04
g roof_rafter_04
usemtl wood
v 2.13118 -0.12000 2.96000
v 2.23118 -0.12000 2.96000
v 2.23118 4.58000 2.96000
v 2.13118 4.58000 2.96000
v 2.13118 -0.12000 3.08000
v 2.23118 -0.12000 3.08000
v 2.23118 4.58000 3.08000
v 2.13118 4.58000 3.08000
f 465 466 467 468
f 469 472 471 470
f 465 469 470 466
f 466 470 471 467
f 467 471 472 468
f 469 465 468 472
o rafter_05
g roof_rafter_05
usemtl wood
v 2.79824 -0.12000 2.96000
v 2.89824 -0.12000 2.96000
v 2.89824 4.58000 2.96000
v 2.79824 4.58000 2.96000
v 2.79824 -0.12000 3.08000
v 2.89824 -0.12000 3.08000
v 2.89824 4.58000 3.08000
v 2.79824 4.58000 3.08000
f 473 474 475 476
f 477 480 479 478
f 473 477 478 474
f 474 478 479 475
f 475 479 480 476
f 477 473 476 480
o rafter_06
g roof_rafter_06
usemtl wood
v 3.46529 -0.12000 2.96000
v 3.56529 -0.12000 2.96000
v 3.56529 4.58000 2.96000
v 3.46529 4.58000 2.96000
v 3.46529 -0.12000 3.08000
v 3.56529 -0.12000 3.08000
v 3.56529 4.58000 3.08000
v 3.46529 4.58000 3.08000
f 481 482 483 484
f 485 488 487 486
f 481 485 486 482
f 482 486 487 483
f 483 487 488 484
f 485 481 484 488
o rafter_07
g roof_rafter_07
usemtl wood
v 4.13235 -0.12000 2.96000
v 4.23235 -0.12000 2.96000
v 4.23235 4.58000 2.96000
v 4.13235 4.58000 2.96000
v 4.13235 -0.12000 3.08000
v 4.23235 -0.12000 3.08000
v 4.23235 4.58000 3.08000
v 4.13235 4.58000 3.08000
f 489 490 491 492
f 493 496 495 494
f 489 493 494 490
f 490 494 495 491
f 491 495 496 492
f 493 489 492 496
o rafter_08
g roof_rafter_08
usemtl wood
v 4.79941 -0.12000 2.96000
v 4.89941 -0.12000 2.96000
v 4.89941 4.58000 2.96000
v 4.79941 4.58000 2.96000
v 4.79941 -0.12000 3.08000
v 4.89941 -0.12000 3.08000
v 4.89941 4.58000 3.08000
v 4.79941 4.58000 3.08000
f 497 498 499 500
f 501 504 503 502
f 497 501 502 498
f 498 502 503 499
f 499 503 504 500
f 501 497 500 504
o rafter_09
g roof_rafter_09
usemtl wood
v 5.46647 -0.12000 2.96000
v 5.56647 -0.12000 2.96000
v 5.56647 4.58000 2.96000
v 5.46647 4.58000 2.96000
v 5.46647 -0.12000 3.08000
v 5.56647 -0.12000 3.08000
v 5.56647 4.58000 3.08000
v 5.46647 4.58000 3.08000
f 505 506 507 508
f 509 512 511 510
f 505 509 510 506
f 506 510 511 507
f 507 511 512 508
f 509 505 508 512
o rafter_10
g roof_rafter_10
usemtl wood
v 6.13353 -0.12000 2.96000
v 6.23353 -0.12000 2.96000
v 6.23353 4.58000 2.96000
v 6.13353 4.58000 2.96000
v 6.13353 -0.12000 3.08000
v 6.23353 -0.12000 3.08000
v 6.23353 4.58000 3.08000
v 6.13353 4.58000 3.08000
f 513 514 515 516
f 517 520 519 518
f 513 517 518 514
f 514 518 519 515
f 515 519 520 516
f 517 513 516 520
o rafter_11
g roof_rafter_11
usemtl wood
v 6.80059 -0.12000 2.96000
v 6.90059 -0.12000 2.96000
v 6.90059 4.58000 2.96000
v 6.80059 4.58000 2.96000
v 6.80059 -0.12000 3.08000
v 6.90059 -0.12000 3.08000
v 6.90059 4.58000 3.08000
v 6.80059 4.58000 3.08000
f 521 522 523 524
f 525 528 527 526
f 521 525 526 522
f 522 526 527 523
f 523 527 528 524
f 525 521 524 528
o rafter_12
g roof_rafter_12
usemtl wood
v 7.46765 -0.12000 2.96000
v 7.56765 -0.12000 2.96000
v 7.56765 4.58000 2.96000
v 7.46765 4.58000 2.96000
v 7.46765 -0.12000 3.08000
v 7.56765 -0.12000 3.08000
v 7.56765 4.58000 3.08000
v 7.46765 4.58000 3.08000
f 529 530 531 532
f 533 536 535 534
f 529 533 534 530
f 530 534 535 531
f 531 535 536 532
f 533 529 532 536
o rafter_13
g roof_rafter_13
usemtl wood
v 8.13471 -0.12000 2.96000
v 8.23471 -0.12000 2.96000
v 8.23471 4.58000 2.96000
v 8.13471 4.58000 2.96000
v 8.13471 -0.12000 3.08000
v 8.23471 -0.12000 3.08000
v 8.23471 4.58000 3.08000
v 8.13471 4.58000 3.08000
f 537 538 539 540
f 541 544 543 542
f 537 541 542 538
f 538 542 543 539
f 539 543 544 540
f 541 537 540 544
o rafter_14
g roof_rafter_14
usemtl wood
v 8.80176 -0.12000 2.96000
v 8.90176 -0.12000 2.96000
v 8.90176 4.58000 2.96000
v 8.80176 4.58000 2.96000
v 8.80176 -0.12000 3.08000
v 8.90176 -0.12000 3.08000
v 8.90176 4.58000 3.08000
v 8.80176 4.58000 3.08000
f 545 546 547 548
f 549 552 551 550
f 545 549 550 546
f 546 550 551 547
f 547 551 552 548
f 549 545 548 552
o rafter_15
g roof_rafter_15
usemtl wood
v 9.46882 -0.12000 2.96000
v 9.56882 -0.12000 2.96000
v 9.56882 4.58000 2.96000
v 9.46882 4.58000 2.96000
v 9.46882 -0.12000 3.08000
v 9.56882 -0.12000 3.08000
v 9.56882 4.58000 3.08000
v 9.46882 4.58000 3.08000
f 553 554 555 556
f 557 560 559 558
f 553 557 558 554
f 554 558 559 555
f 555 559 560 556
f 557 553 556 560
o rafter_16
g roof_rafter_16
usemtl wood
v 10.13588 -0.12000 2.96000
v 10.23588 -0.12000 2.96000
v 10.23588 4.58000 2.96000
v 10.13588 4.58000 2.96000
v 10.13588 -0.12000 3.08000
v 10.23588 -0.12000 3.08000
v 10.23588 4.58000 3.08000
v 10.13588 4.58000 3.08000
f 561 562 563 564
f 565 568 567 566
f 561 565 566 562
f 562 566 567 563
f 563 567 568 564
f 565 561 564 568
o rafter_17
g roof_rafter_17
usemtl wood
v 10.80294 -0.12000 2.96000
v 10.90294 -0.12000 2.96000
v 10.90294 4.58000 2.96000
v 10.80294 4.58000 2.96000
v 10.80294 -0.12000 3.08000
v 10.90294 -0.12000 3.08000
v 10.90294 4.58000 3.08000
v 10.80294 4.58000 3.08000
f 569 570 571 572
f 573 576 575 574
f 569 573 574 570
f 570 574 575 571
f 571 575 576 572
f 573 569 572 576
o rafter_18
g roof_rafter_18
usemtl wood
v 11.47000 -0.12000 2.96000
v 11.57000 -0.12000 2.96000
v 11.57000 4.58000 2.96000
v 11.47000 4.58000 2.96000
v 11.47000 -0.12000 3.08000
v 11.57000 -0.12000 3.08000
v 11.57000 4.58000 3.08000
v 11.47000 4.58000 3.08000
f 577 578 579 580
f 581 584 583 582
f 577 581 582 578
f 578 582 583 579
f 579 583 584 580
f 581 577 580 584
o central_round_lantern
g lighting_central_round_lantern
usemtl lantern
v 5.45000 3.55000 2.63000
v 5.45000 3.55000 2.63000
v 5.45000 3.55000 2.63000
v 5.45000 3.55000 2.63000
v 5.45000 3.55000 2.63000
v 5.45000 3.55000 2.63000
v 5.45000 3.55000 2.63000
v 5.45000 3.55000 2.63000
v 5.45000 3.55000 2.63000
v 5.45000 3.55000 2.63000
v 5.45000 3.55000 2.63000
v 5.45000 3.55000 2.63000
v 5.45000 3.55000 2.63000
v 5.45000 3.55000 2.63000
v 5.45000 3.55000 2.63000
v 5.45000 3.55000 2.63000
v 5.45000 3.55000 2.63000
v 5.45000 3.55000 2.63000
v 5.61417 3.55000 2.60105
v 5.60427 3.60615 2.60105
v 5.57576 3.65553 2.60105
v 5.53208 3.69218 2.60105
v 5.47851 3.71168 2.60105
v 5.42149 3.71168 2.60105
v 5.36792 3.69218 2.60105
v 5.32424 3.65553 2.60105
v 5.29573 3.60615 2.60105
v 5.28583 3.55000 2.60105
v 5.29573 3.49385 2.60105
v 5.32424 3.44447 2.60105
v 5.36792 3.40782 2.60105
v 5.42149 3.38832 2.60105
v 5.47851 3.38832 2.60105
v 5.53208 3.40782 2.60105
v 5.57576 3.44447 2.60105
v 5.60427 3.49385 2.60105
v 5.75854 3.55000 2.51770
v 5.73993 3.65553 2.51770
v 5.68635 3.74832 2.51770
v 5.60427 3.81720 2.51770
v 5.50358 3.85385 2.51770
v 5.39642 3.85385 2.51770
v 5.29573 3.81720 2.51770
v 5.21365 3.74832 2.51770
v 5.16007 3.65553 2.51770
v 5.14146 3.55000 2.51770
v 5.16007 3.44447 2.51770
v 5.21365 3.35168 2.51770
v 5.29573 3.28280 2.51770
v 5.39642 3.24615 2.51770
v 5.50358 3.24615 2.51770
v 5.60427 3.28280 2.51770
v 5.68635 3.35168 2.51770
v 5.73993 3.44447 2.51770
v 5.86569 3.55000 2.39000
v 5.84062 3.69218 2.39000
v 5.76844 3.81720 2.39000
v 5.65785 3.91000 2.39000
v 5.52218 3.95938 2.39000
v 5.37782 3.95938 2.39000
v 5.24215 3.91000 2.39000
v 5.13156 3.81720 2.39000
v 5.05938 3.69218 2.39000
v 5.03431 3.55000 2.39000
v 5.05938 3.40782 2.39000
v 5.13156 3.28280 2.39000
v 5.24215 3.19000 2.39000
v 5.37782 3.14062 2.39000
v 5.52218 3.14062 2.39000
v 5.65785 3.19000 2.39000
v 5.76844 3.28280 2.39000
v 5.84062 3.40782 2.39000
v 5.92271 3.55000 2.23335
v 5.89420 3.71168 2.23335
v 5.81212 3.85385 2.23335
v 5.68635 3.95938 2.23335
v 5.53208 4.01553 2.23335
v 5.36792 4.01553 2.23335
v 5.21365 3.95938 2.23335
v 5.08788 3.85385 2.23335
v 5.00580 3.71168 2.23335
v 4.97729 3.55000 2.23335
v 5.00580 3.38832 2.23335
v 5.08788 3.24615 2.23335
v 5.21365 3.14062 2.23335
v 5.36792 3.08447 2.23335
v 5.53208 3.08447 2.23335
v 5.68635 3.14062 2.23335
v 5.81212 3.24615 2.23335
v 5.89420 3.38832 2.23335
v 5.92271 3.55000 2.06665
v 5.89420 3.71168 2.06665
v 5.81212 3.85385 2.06665
v 5.68635 3.95938 2.06665
v 5.53208 4.01553 2.06665
v 5.36792 4.01553 2.06665
v 5.21365 3.95938 2.06665
v 5.08788 3.85385 2.06665
v 5.00580 3.71168 2.06665
v 4.97729 3.55000 2.06665
v 5.00580 3.38832 2.06665
v 5.08788 3.24615 2.06665
v 5.21365 3.14062 2.06665
v 5.36792 3.08447 2.06665
v 5.53208 3.08447 2.06665
v 5.68635 3.14062 2.06665
v 5.81212 3.24615 2.06665
v 5.89420 3.38832 2.06665
v 5.86569 3.55000 1.91000
v 5.84062 3.69218 1.91000
v 5.76844 3.81720 1.91000
v 5.65785 3.91000 1.91000
v 5.52218 3.95938 1.91000
v 5.37782 3.95938 1.91000
v 5.24215 3.91000 1.91000
v 5.13156 3.81720 1.91000
v 5.05938 3.69218 1.91000
v 5.03431 3.55000 1.91000
v 5.05938 3.40782 1.91000
v 5.13156 3.28280 1.91000
v 5.24215 3.19000 1.91000
v 5.37782 3.14062 1.91000
v 5.52218 3.14062 1.91000
v 5.65785 3.19000 1.91000
v 5.76844 3.28280 1.91000
v 5.84062 3.40782 1.91000
v 5.75854 3.55000 1.78230
v 5.73993 3.65553 1.78230
v 5.68635 3.74832 1.78230
v 5.60427 3.81720 1.78230
v 5.50358 3.85385 1.78230
v 5.39642 3.85385 1.78230
v 5.29573 3.81720 1.78230
v 5.21365 3.74832 1.78230
v 5.16007 3.65553 1.78230
v 5.14146 3.55000 1.78230
v 5.16007 3.44447 1.78230
v 5.21365 3.35168 1.78230
v 5.29573 3.28280 1.78230
v 5.39642 3.24615 1.78230
v 5.50358 3.24615 1.78230
v 5.60427 3.28280 1.78230
v 5.68635 3.35168 1.78230
v 5.73993 3.44447 1.78230
v 5.61417 3.55000 1.69895
v 5.60427 3.60615 1.69895
v 5.57576 3.65553 1.69895
v 5.53208 3.69218 1.69895
v 5.47851 3.71168 1.69895
v 5.42149 3.71168 1.69895
v 5.36792 3.69218 1.69895
v 5.32424 3.65553 1.69895
v 5.29573 3.60615 1.69895
v 5.28583 3.55000 1.69895
v 5.29573 3.49385 1.69895
v 5.32424 3.44447 1.69895
v 5.36792 3.40782 1.69895
v 5.42149 3.38832 1.69895
v 5.47851 3.38832 1.69895
v 5.53208 3.40782 1.69895
v 5.57576 3.44447 1.69895
v 5.60427 3.49385 1.69895
v 5.45000 3.55000 1.67000
v 5.45000 3.55000 1.67000
v 5.45000 3.55000 1.67000
v 5.45000 3.55000 1.67000
v 5.45000 3.55000 1.67000
v 5.45000 3.55000 1.67000
v 5.45000 3.55000 1.67000
v 5.45000 3.55000 1.67000
v 5.45000 3.55000 1.67000
v 5.45000 3.55000 1.67000
v 5.45000 3.55000 1.67000
v 5.45000 3.55000 1.67000
v 5.45000 3.55000 1.67000
v 5.45000 3.55000 1.67000
v 5.45000 3.55000 1.67000
v 5.45000 3.55000 1.67000
v 5.45000 3.55000 1.67000
v 5.45000 3.55000 1.67000
f 585 586 604 603
f 586 587 605 604
f 587 588 606 605
f 588 589 607 606
f 589 590 608 607
f 590 591 609 608
f 591 592 610 609
f 592 593 611 610
f 593 594 612 611
f 594 595 613 612
f 595 596 614 613
f 596 597 615 614
f 597 598 616 615
f 598 599 617 616
f 599 600 618 617
f 600 601 619 618
f 601 602 620 619
f 602 585 603 620
f 603 604 622 621
f 604 605 623 622
f 605 606 624 623
f 606 607 625 624
f 607 608 626 625
f 608 609 627 626
f 609 610 628 627
f 610 611 629 628
f 611 612 630 629
f 612 613 631 630
f 613 614 632 631
f 614 615 633 632
f 615 616 634 633
f 616 617 635 634
f 617 618 636 635
f 618 619 637 636
f 619 620 638 637
f 620 603 621 638
f 621 622 640 639
f 622 623 641 640
f 623 624 642 641
f 624 625 643 642
f 625 626 644 643
f 626 627 645 644
f 627 628 646 645
f 628 629 647 646
f 629 630 648 647
f 630 631 649 648
f 631 632 650 649
f 632 633 651 650
f 633 634 652 651
f 634 635 653 652
f 635 636 654 653
f 636 637 655 654
f 637 638 656 655
f 638 621 639 656
f 639 640 658 657
f 640 641 659 658
f 641 642 660 659
f 642 643 661 660
f 643 644 662 661
f 644 645 663 662
f 645 646 664 663
f 646 647 665 664
f 647 648 666 665
f 648 649 667 666
f 649 650 668 667
f 650 651 669 668
f 651 652 670 669
f 652 653 671 670
f 653 654 672 671
f 654 655 673 672
f 655 656 674 673
f 656 639 657 674
f 657 658 676 675
f 658 659 677 676
f 659 660 678 677
f 660 661 679 678
f 661 662 680 679
f 662 663 681 680
f 663 664 682 681
f 664 665 683 682
f 665 666 684 683
f 666 667 685 684
f 667 668 686 685
f 668 669 687 686
f 669 670 688 687
f 670 671 689 688
f 671 672 690 689
f 672 673 691 690
f 673 674 692 691
f 674 657 675 692
f 675 676 694 693
f 676 677 695 694
f 677 678 696 695
f 678 679 697 696
f 679 680 698 697
f 680 681 699 698
f 681 682 700 699
f 682 683 701 700
f 683 684 702 701
f 684 685 703 702
f 685 686 704 703
f 686 687 705 704
f 687 688 706 705
f 688 689 707 706
f 689 690 708 707
f 690 691 709 708
f 691 692 710 709
f 692 675 693 710
f 693 694 712 711
f 694 695 713 712
f 695 696 714 713
f 696 697 715 714
f 697 698 716 715
f 698 699 717 716
f 699 700 718 717
f 700 701 719 718
f 701 702 720 719
f 702 703 721 720
f 703 704 722 721
f 704 705 723 722
f 705 706 724 723
f 706 707 725 724
f 707 708 726 725
f 708 709 727 726
f 709 710 728 727
f 710 693 711 728
f 711 712 730 729
f 712 713 731 730
f 713 714 732 731
f 714 715 733 732
f 715 716 734 733
f 716 717 735 734
f 717 718 736 735
f 718 719 737 736
f 719 720 738 737
f 720 721 739 738
f 721 722 740 739
f 722 723 741 740
f 723 724 742 741
f 724 725 743 742
f 725 726 744 743
f 726 727 745 744
f 727 728 746 745
f 728 711 729 746
f 729 730 748 747
f 730 731 749 748
f 731 732 750 749
f 732 733 751 750
f 733 734 752 751
f 734 735 753 752
f 735 736 754 753
f 736 737 755 754
f 737 738 756 755
f 738 739 757 756
f 739 740 758 757
f 740 741 759 758
f 741 742 760 759
f 742 743 761 760
f 743 744 762 761
f 744 745 763 762
f 745 746 764 763
f 746 729 747 764
o left_paper_lantern_1
g lighting_left_paper_lantern_1
usemtl lantern
v 1.03000 3.95000 1.91000
v 1.01630 4.01888 1.91000
v 0.97728 4.07728 1.91000
v 0.91888 4.11630 1.91000
v 0.85000 4.13000 1.91000
v 0.78112 4.11630 1.91000
v 0.72272 4.07728 1.91000
v 0.68370 4.01888 1.91000
v 0.67000 3.95000 1.91000
v 0.68370 3.88112 1.91000
v 0.72272 3.82272 1.91000
v 0.78112 3.78370 1.91000
v 0.85000 3.77000 1.91000
v 0.91888 3.78370 1.91000
v 0.97728 3.82272 1.91000
v 1.01630 3.88112 1.91000
v 1.03000 3.95000 2.39000
v 1.01630 4.01888 2.39000
v 0.97728 4.07728 2.39000
v 0.91888 4.11630 2.39000
v 0.85000 4.13000 2.39000
v 0.78112 4.11630 2.39000
v 0.72272 4.07728 2.39000
v 0.68370 4.01888 2.39000
v 0.67000 3.95000 2.39000
v 0.68370 3.88112 2.39000
v 0.72272 3.82272 2.39000
v 0.78112 3.78370 2.39000
v 0.85000 3.77000 2.39000
v 0.91888 3.78370 2.39000
v 0.97728 3.82272 2.39000
v 1.01630 3.88112 2.39000
v 0.85000 3.95000 1.91000
v 0.85000 3.95000 2.39000
f 765 766 782 781
f 797 766 765
f 798 781 782
f 766 767 783 782
f 797 767 766
f 798 782 783
f 767 768 784 783
f 797 768 767
f 798 783 784
f 768 769 785 784
f 797 769 768
f 798 784 785
f 769 770 786 785
f 797 770 769
f 798 785 786
f 770 771 787 786
f 797 771 770
f 798 786 787
f 771 772 788 787
f 797 772 771
f 798 787 788
f 772 773 789 788
f 797 773 772
f 798 788 789
f 773 774 790 789
f 797 774 773
f 798 789 790
f 774 775 791 790
f 797 775 774
f 798 790 791
f 775 776 792 791
f 797 776 775
f 798 791 792
f 776 777 793 792
f 797 777 776
f 798 792 793
f 777 778 794 793
f 797 778 777
f 798 793 794
f 778 779 795 794
f 797 779 778
f 798 794 795
f 779 780 796 795
f 797 780 779
f 798 795 796
f 780 765 781 796
f 797 765 780
f 798 796 781
o left_paper_lantern_2
g lighting_left_paper_lantern_2
usemtl lantern
v 1.73000 3.95000 1.91000
v 1.71630 4.01888 1.91000
v 1.67728 4.07728 1.91000
v 1.61888 4.11630 1.91000
v 1.55000 4.13000 1.91000
v 1.48112 4.11630 1.91000
v 1.42272 4.07728 1.91000
v 1.38370 4.01888 1.91000
v 1.37000 3.95000 1.91000
v 1.38370 3.88112 1.91000
v 1.42272 3.82272 1.91000
v 1.48112 3.78370 1.91000
v 1.55000 3.77000 1.91000
v 1.61888 3.78370 1.91000
v 1.67728 3.82272 1.91000
v 1.71630 3.88112 1.91000
v 1.73000 3.95000 2.39000
v 1.71630 4.01888 2.39000
v 1.67728 4.07728 2.39000
v 1.61888 4.11630 2.39000
v 1.55000 4.13000 2.39000
v 1.48112 4.11630 2.39000
v 1.42272 4.07728 2.39000
v 1.38370 4.01888 2.39000
v 1.37000 3.95000 2.39000
v 1.38370 3.88112 2.39000
v 1.42272 3.82272 2.39000
v 1.48112 3.78370 2.39000
v 1.55000 3.77000 2.39000
v 1.61888 3.78370 2.39000
v 1.67728 3.82272 2.39000
v 1.71630 3.88112 2.39000
v 1.55000 3.95000 1.91000
v 1.55000 3.95000 2.39000
f 799 800 816 815
f 831 800 799
f 832 815 816
f 800 801 817 816
f 831 801 800
f 832 816 817
f 801 802 818 817
f 831 802 801
f 832 817 818
f 802 803 819 818
f 831 803 802
f 832 818 819
f 803 804 820 819
f 831 804 803
f 832 819 820
f 804 805 821 820
f 831 805 804
f 832 820 821
f 805 806 822 821
f 831 806 805
f 832 821 822
f 806 807 823 822
f 831 807 806
f 832 822 823
f 807 808 824 823
f 831 808 807
f 832 823 824
f 808 809 825 824
f 831 809 808
f 832 824 825
f 809 810 826 825
f 831 810 809
f 832 825 826
f 810 811 827 826
f 831 811 810
f 832 826 827
f 811 812 828 827
f 831 812 811
f 832 827 828
f 812 813 829 828
f 831 813 812
f 832 828 829
f 813 814 830 829
f 831 814 813
f 832 829 830
f 814 799 815 830
f 831 799 814
f 832 830 815
o left_paper_lantern_3
g lighting_left_paper_lantern_3
usemtl lantern
v 2.43000 3.95000 1.91000
v 2.41630 4.01888 1.91000
v 2.37728 4.07728 1.91000
v 2.31888 4.11630 1.91000
v 2.25000 4.13000 1.91000
v 2.18112 4.11630 1.91000
v 2.12272 4.07728 1.91000
v 2.08370 4.01888 1.91000
v 2.07000 3.95000 1.91000
v 2.08370 3.88112 1.91000
v 2.12272 3.82272 1.91000
v 2.18112 3.78370 1.91000
v 2.25000 3.77000 1.91000
v 2.31888 3.78370 1.91000
v 2.37728 3.82272 1.91000
v 2.41630 3.88112 1.91000
v 2.43000 3.95000 2.39000
v 2.41630 4.01888 2.39000
v 2.37728 4.07728 2.39000
v 2.31888 4.11630 2.39000
v 2.25000 4.13000 2.39000
v 2.18112 4.11630 2.39000
v 2.12272 4.07728 2.39000
v 2.08370 4.01888 2.39000
v 2.07000 3.95000 2.39000
v 2.08370 3.88112 2.39000
v 2.12272 3.82272 2.39000
v 2.18112 3.78370 2.39000
v 2.25000 3.77000 2.39000
v 2.31888 3.78370 2.39000
v 2.37728 3.82272 2.39000
v 2.41630 3.88112 2.39000
v 2.25000 3.95000 1.91000
v 2.25000 3.95000 2.39000
f 833 834 850 849
f 865 834 833
f 866 849 850
f 834 835 851 850
f 865 835 834
f 866 850 851
f 835 836 852 851
f 865 836 835
f 866 851 852
f 836 837 853 852
f 865 837 836
f 866 852 853
f 837 838 854 853
f 865 838 837
f 866 853 854
f 838 839 855 854
f 865 839 838
f 866 854 855
f 839 840 856 855
f 865 840 839
f 866 855 856
f 840 841 857 856
f 865 841 840
f 866 856 857
f 841 842 858 857
f 865 842 841
f 866 857 858
f 842 843 859 858
f 865 843 842
f 866 858 859
f 843 844 860 859
f 865 844 843
f 866 859 860
f 844 845 861 860
f 865 845 844
f 866 860 861
f 845 846 862 861
f 865 846 845
f 866 861 862
f 846 847 863 862
f 865 847 846
f 866 862 863
f 847 848 864 863
f 865 848 847
f 866 863 864
f 848 833 849 864
f 865 833 848
f 866 864 849
o left_paper_lantern_4
g lighting_left_paper_lantern_4
usemtl lantern
v 3.13000 3.95000 1.91000
v 3.11630 4.01888 1.91000
v 3.07728 4.07728 1.91000
v 3.01888 4.11630 1.91000
v 2.95000 4.13000 1.91000
v 2.88112 4.11630 1.91000
v 2.82272 4.07728 1.91000
v 2.78370 4.01888 1.91000
v 2.77000 3.95000 1.91000
v 2.78370 3.88112 1.91000
v 2.82272 3.82272 1.91000
v 2.88112 3.78370 1.91000
v 2.95000 3.77000 1.91000
v 3.01888 3.78370 1.91000
v 3.07728 3.82272 1.91000
v 3.11630 3.88112 1.91000
v 3.13000 3.95000 2.39000
v 3.11630 4.01888 2.39000
v 3.07728 4.07728 2.39000
v 3.01888 4.11630 2.39000
v 2.95000 4.13000 2.39000
v 2.88112 4.11630 2.39000
v 2.82272 4.07728 2.39000
v 2.78370 4.01888 2.39000
v 2.77000 3.95000 2.39000
v 2.78370 3.88112 2.39000
v 2.82272 3.82272 2.39000
v 2.88112 3.78370 2.39000
v 2.95000 3.77000 2.39000
v 3.01888 3.78370 2.39000
v 3.07728 3.82272 2.39000
v 3.11630 3.88112 2.39000
v 2.95000 3.95000 1.91000
v 2.95000 3.95000 2.39000
f 867 868 884 883
f 899 868 867
f 900 883 884
f 868 869 885 884
f 899 869 868
f 900 884 885
f 869 870 886 885
f 899 870 869
f 900 885 886
f 870 871 887 886
f 899 871 870
f 900 886 887
f 871 872 888 887
f 899 872 871
f 900 887 888
f 872 873 889 888
f 899 873 872
f 900 888 889
f 873 874 890 889
f 899 874 873
f 900 889 890
f 874 875 891 890
f 899 875 874
f 900 890 891
f 875 876 892 891
f 899 876 875
f 900 891 892
f 876 877 893 892
f 899 877 876
f 900 892 893
f 877 878 894 893
f 899 878 877
f 900 893 894
f 878 879 895 894
f 899 879 878
f 900 894 895
f 879 880 896 895
f 899 880 879
f 900 895 896
f 880 881 897 896
f 899 881 880
f 900 896 897
f 881 882 898 897
f 899 882 881
f 900 897 898
f 882 867 883 898
f 899 867 882
f 900 898 883
o left_paper_lantern_5
g lighting_left_paper_lantern_5
usemtl lantern
v 4.28000 3.95000 1.91000
v 4.26630 4.01888 1.91000
v 4.22728 4.07728 1.91000
v 4.16888 4.11630 1.91000
v 4.10000 4.13000 1.91000
v 4.03112 4.11630 1.91000
v 3.97272 4.07728 1.91000
v 3.93370 4.01888 1.91000
v 3.92000 3.95000 1.91000
v 3.93370 3.88112 1.91000
v 3.97272 3.82272 1.91000
v 4.03112 3.78370 1.91000
v 4.10000 3.77000 1.91000
v 4.16888 3.78370 1.91000
v 4.22728 3.82272 1.91000
v 4.26630 3.88112 1.91000
v 4.28000 3.95000 2.39000
v 4.26630 4.01888 2.39000
v 4.22728 4.07728 2.39000
v 4.16888 4.11630 2.39000
v 4.10000 4.13000 2.39000
v 4.03112 4.11630 2.39000
v 3.97272 4.07728 2.39000
v 3.93370 4.01888 2.39000
v 3.92000 3.95000 2.39000
v 3.93370 3.88112 2.39000
v 3.97272 3.82272 2.39000
v 4.03112 3.78370 2.39000
v 4.10000 3.77000 2.39000
v 4.16888 3.78370 2.39000
v 4.22728 3.82272 2.39000
v 4.26630 3.88112 2.39000
v 4.10000 3.95000 1.91000
v 4.10000 3.95000 2.39000
f 901 902 918 917
f 933 902 901
f 934 917 918
f 902 903 919 918
f 933 903 902
f 934 918 919
f 903 904 920 919
f 933 904 903
f 934 919 920
f 904 905 921 920
f 933 905 904
f 934 920 921
f 905 906 922 921
f 933 906 905
f 934 921 922
f 906 907 923 922
f 933 907 906
f 934 922 923
f 907 908 924 923
f 933 908 907
f 934 923 924
f 908 909 925 924
f 933 909 908
f 934 924 925
f 909 910 926 925
f 933 910 909
f 934 925 926
f 910 911 927 926
f 933 911 910
f 934 926 927
f 911 912 928 927
f 933 912 911
f 934 927 928
f 912 913 929 928
f 933 913 912
f 934 928 929
f 913 914 930 929
f 933 914 913
f 934 929 930
f 914 915 931 930
f 933 915 914
f 934 930 931
f 915 916 932 931
f 933 916 915
f 934 931 932
f 916 901 917 932
f 933 901 916
f 934 932 917
o left_paper_lantern_6
g lighting_left_paper_lantern_6
usemtl lantern
v 5.18000 3.95000 1.91000
v 5.16630 4.01888 1.91000
v 5.12728 4.07728 1.91000
v 5.06888 4.11630 1.91000
v 5.00000 4.13000 1.91000
v 4.93112 4.11630 1.91000
v 4.87272 4.07728 1.91000
v 4.83370 4.01888 1.91000
v 4.82000 3.95000 1.91000
v 4.83370 3.88112 1.91000
v 4.87272 3.82272 1.91000
v 4.93112 3.78370 1.91000
v 5.00000 3.77000 1.91000
v 5.06888 3.78370 1.91000
v 5.12728 3.82272 1.91000
v 5.16630 3.88112 1.91000
v 5.18000 3.95000 2.39000
v 5.16630 4.01888 2.39000
v 5.12728 4.07728 2.39000
v 5.06888 4.11630 2.39000
v 5.00000 4.13000 2.39000
v 4.93112 4.11630 2.39000
v 4.87272 4.07728 2.39000
v 4.83370 4.01888 2.39000
v 4.82000 3.95000 2.39000
v 4.83370 3.88112 2.39000
v 4.87272 3.82272 2.39000
v 4.93112 3.78370 2.39000
v 5.00000 3.77000 2.39000
v 5.06888 3.78370 2.39000
v 5.12728 3.82272 2.39000
v 5.16630 3.88112 2.39000
v 5.00000 3.95000 1.91000
v 5.00000 3.95000 2.39000
f 935 936 952 951
f 967 936 935
f 968 951 952
f 936 937 953 952
f 967 937 936
f 968 952 953
f 937 938 954 953
f 967 938 937
f 968 953 954
f 938 939 955 954
f 967 939 938
f 968 954 955
f 939 940 956 955
f 967 940 939
f 968 955 956
f 940 941 957 956
f 967 941 940
f 968 956 957
f 941 942 958 957
f 967 942 941
f 968 957 958
f 942 943 959 958
f 967 943 942
f 968 958 959
f 943 944 960 959
f 967 944 943
f 968 959 960
f 944 945 961 960
f 967 945 944
f 968 960 961
f 945 946 962 961
f 967 946 945
f 968 961 962
f 946 947 963 962
f 967 947 946
f 968 962 963
f 947 948 964 963
f 967 948 947
f 968 963 964
f 948 949 965 964
f 967 949 948
f 968 964 965
f 949 950 966 965
f 967 950 949
f 968 965 966
f 950 935 951 966
f 967 935 950
f 968 966 951
o planter_0.55_0.50
g landscape_planter_0.55_0.50
usemtl plant
v 0.81000 0.50000 0.20000
v 0.79021 0.59950 0.20000
v 0.73385 0.68385 0.20000
v 0.64950 0.74021 0.20000
v 0.55000 0.76000 0.20000
v 0.45050 0.74021 0.20000
v 0.36615 0.68385 0.20000
v 0.30979 0.59950 0.20000
v 0.29000 0.50000 0.20000
v 0.30979 0.40050 0.20000
v 0.36615 0.31615 0.20000
v 0.45050 0.25979 0.20000
v 0.55000 0.24000 0.20000
v 0.64950 0.25979 0.20000
v 0.73385 0.31615 0.20000
v 0.79021 0.40050 0.20000
v 0.81000 0.50000 0.70000
v 0.79021 0.59950 0.70000
v 0.73385 0.68385 0.70000
v 0.64950 0.74021 0.70000
v 0.55000 0.76000 0.70000
v 0.45050 0.74021 0.70000
v 0.36615 0.68385 0.70000
v 0.30979 0.59950 0.70000
v 0.29000 0.50000 0.70000
v 0.30979 0.40050 0.70000
v 0.36615 0.31615 0.70000
v 0.45050 0.25979 0.70000
v 0.55000 0.24000 0.70000
v 0.64950 0.25979 0.70000
v 0.73385 0.31615 0.70000
v 0.79021 0.40050 0.70000
v 0.55000 0.50000 0.20000
v 0.55000 0.50000 0.70000
f 969 970 986 985
f 1001 970 969
f 1002 985 986
f 970 971 987 986
f 1001 971 970
f 1002 986 987
f 971 972 988 987
f 1001 972 971
f 1002 987 988
f 972 973 989 988
f 1001 973 972
f 1002 988 989
f 973 974 990 989
f 1001 974 973
f 1002 989 990
f 974 975 991 990
f 1001 975 974
f 1002 990 991
f 975 976 992 991
f 1001 976 975
f 1002 991 992
f 976 977 993 992
f 1001 977 976
f 1002 992 993
f 977 978 994 993
f 1001 978 977
f 1002 993 994
f 978 979 995 994
f 1001 979 978
f 1002 994 995
f 979 980 996 995
f 1001 980 979
f 1002 995 996
f 980 981 997 996
f 1001 981 980
f 1002 996 997
f 981 982 998 997
f 1001 982 981
f 1002 997 998
f 982 983 999 998
f 1001 983 982
f 1002 998 999
f 983 984 1000 999
f 1001 984 983
f 1002 999 1000
f 984 969 985 1000
f 1001 969 984
f 1002 1000 985
o planter_4.95_0.45
g landscape_planter_4.95_0.45
usemtl plant
v 5.21000 0.45000 0.20000
v 5.19021 0.54950 0.20000
v 5.13385 0.63385 0.20000
v 5.04950 0.69021 0.20000
v 4.95000 0.71000 0.20000
v 4.85050 0.69021 0.20000
v 4.76615 0.63385 0.20000
v 4.70979 0.54950 0.20000
v 4.69000 0.45000 0.20000
v 4.70979 0.35050 0.20000
v 4.76615 0.26615 0.20000
v 4.85050 0.20979 0.20000
v 4.95000 0.19000 0.20000
v 5.04950 0.20979 0.20000
v 5.13385 0.26615 0.20000
v 5.19021 0.35050 0.20000
v 5.21000 0.45000 0.70000
v 5.19021 0.54950 0.70000
v 5.13385 0.63385 0.70000
v 5.04950 0.69021 0.70000
v 4.95000 0.71000 0.70000
v 4.85050 0.69021 0.70000
v 4.76615 0.63385 0.70000
v 4.70979 0.54950 0.70000
v 4.69000 0.45000 0.70000
v 4.70979 0.35050 0.70000
v 4.76615 0.26615 0.70000
v 4.85050 0.20979 0.70000
v 4.95000 0.19000 0.70000
v 5.04950 0.20979 0.70000
v 5.13385 0.26615 0.70000
v 5.19021 0.35050 0.70000
v 4.95000 0.45000 0.20000
v 4.95000 0.45000 0.70000
f 1003 1004 1020 1019
f 1035 1004 1003
f 1036 1019 1020
f 1004 1005 1021 1020
f 1035 1005 1004
f 1036 1020 1021
f 1005 1006 1022 1021
f 1035 1006 1005
f 1036 1021 1022
f 1006 1007 1023 1022
f 1035 1007 1006
f 1036 1022 1023
f 1007 1008 1024 1023
f 1035 1008 1007
f 1036 1023 1024
f 1008 1009 1025 1024
f 1035 1009 1008
f 1036 1024 1025
f 1009 1010 1026 1025
f 1035 1010 1009
f 1036 1025 1026
f 1010 1011 1027 1026
f 1035 1011 1010
f 1036 1026 1027
f 1011 1012 1028 1027
f 1035 1012 1011
f 1036 1027 1028
f 1012 1013 1029 1028
f 1035 1013 1012
f 1036 1028 1029
f 1013 1014 1030 1029
f 1035 1014 1013
f 1036 1029 1030
f 1014 1015 1031 1030
f 1035 1015 1014
f 1036 1030 1031
f 1015 1016 1032 1031
f 1035 1016 1015
f 1036 1031 1032
f 1016 1017 1033 1032
f 1035 1017 1016
f 1036 1032 1033
f 1017 1018 1034 1033
f 1035 1018 1017
f 1036 1033 1034
f 1018 1003 1019 1034
f 1035 1003 1018
f 1036 1034 1019
o planter_6.95_0.55
g landscape_planter_6.95_0.55
usemtl plant
v 7.21000 0.55000 0.20000
v 7.19021 0.64950 0.20000
v 7.13385 0.73385 0.20000
v 7.04950 0.79021 0.20000
v 6.95000 0.81000 0.20000
v 6.85050 0.79021 0.20000
v 6.76615 0.73385 0.20000
v 6.70979 0.64950 0.20000
v 6.69000 0.55000 0.20000
v 6.70979 0.45050 0.20000
v 6.76615 0.36615 0.20000
v 6.85050 0.30979 0.20000
v 6.95000 0.29000 0.20000
v 7.04950 0.30979 0.20000
v 7.13385 0.36615 0.20000
v 7.19021 0.45050 0.20000
v 7.21000 0.55000 0.70000
v 7.19021 0.64950 0.70000
v 7.13385 0.73385 0.70000
v 7.04950 0.79021 0.70000
v 6.95000 0.81000 0.70000
v 6.85050 0.79021 0.70000
v 6.76615 0.73385 0.70000
v 6.70979 0.64950 0.70000
v 6.69000 0.55000 0.70000
v 6.70979 0.45050 0.70000
v 6.76615 0.36615 0.70000
v 6.85050 0.30979 0.70000
v 6.95000 0.29000 0.70000
v 7.04950 0.30979 0.70000
v 7.13385 0.36615 0.70000
v 7.19021 0.45050 0.70000
v 6.95000 0.55000 0.20000
v 6.95000 0.55000 0.70000
f 1037 1038 1054 1053
f 1069 1038 1037
f 1070 1053 1054
f 1038 1039 1055 1054
f 1069 1039 1038
f 1070 1054 1055
f 1039 1040 1056 1055
f 1069 1040 1039
f 1070 1055 1056
f 1040 1041 1057 1056
f 1069 1041 1040
f 1070 1056 1057
f 1041 1042 1058 1057
f 1069 1042 1041
f 1070 1057 1058
f 1042 1043 1059 1058
f 1069 1043 1042
f 1070 1058 1059
f 1043 1044 1060 1059
f 1069 1044 1043
f 1070 1059 1060
f 1044 1045 1061 1060
f 1069 1045 1044
f 1070 1060 1061
f 1045 1046 1062 1061
f 1069 1046 1045
f 1070 1061 1062
f 1046 1047 1063 1062
f 1069 1047 1046
f 1070 1062 1063
f 1047 1048 1064 1063
f 1069 1048 1047
f 1070 1063 1064
f 1048 1049 1065 1064
f 1069 1049 1048
f 1070 1064 1065
f 1049 1050 1066 1065
f 1069 1050 1049
f 1070 1065 1066
f 1050 1051 1067 1066
f 1069 1051 1050
f 1070 1066 1067
f 1051 1052 1068 1067
f 1069 1052 1051
f 1070 1067 1068
f 1052 1037 1053 1068
f 1069 1037 1052
f 1070 1068 1053
o planter_7.05_1.80
g landscape_planter_7.05_1.80
usemtl plant
v 7.31000 1.80000 0.20000
v 7.29021 1.89950 0.20000
v 7.23385 1.98385 0.20000
v 7.14950 2.04021 0.20000
v 7.05000 2.06000 0.20000
v 6.95050 2.04021 0.20000
v 6.86615 1.98385 0.20000
v 6.80979 1.89950 0.20000
v 6.79000 1.80000 0.20000
v 6.80979 1.70050 0.20000
v 6.86615 1.61615 0.20000
v 6.95050 1.55979 0.20000
v 7.05000 1.54000 0.20000
v 7.14950 1.55979 0.20000
v 7.23385 1.61615 0.20000
v 7.29021 1.70050 0.20000
v 7.31000 1.80000 0.70000
v 7.29021 1.89950 0.70000
v 7.23385 1.98385 0.70000
v 7.14950 2.04021 0.70000
v 7.05000 2.06000 0.70000
v 6.95050 2.04021 0.70000
v 6.86615 1.98385 0.70000
v 6.80979 1.89950 0.70000
v 6.79000 1.80000 0.70000
v 6.80979 1.70050 0.70000
v 6.86615 1.61615 0.70000
v 6.95050 1.55979 0.70000
v 7.05000 1.54000 0.70000
v 7.14950 1.55979 0.70000
v 7.23385 1.61615 0.70000
v 7.29021 1.70050 0.70000
v 7.05000 1.80000 0.20000
v 7.05000 1.80000 0.70000
f 1071 1072 1088 1087
f 1103 1072 1071
f 1104 1087 1088
f 1072 1073 1089 1088
f 1103 1073 1072
f 1104 1088 1089
f 1073 1074 1090 1089
f 1103 1074 1073
f 1104 1089 1090
f 1074 1075 1091 1090
f 1103 1075 1074
f 1104 1090 1091
f 1075 1076 1092 1091
f 1103 1076 1075
f 1104 1091 1092
f 1076 1077 1093 1092
f 1103 1077 1076
f 1104 1092 1093
f 1077 1078 1094 1093
f 1103 1078 1077
f 1104 1093 1094
f 1078 1079 1095 1094
f 1103 1079 1078
f 1104 1094 1095
f 1079 1080 1096 1095
f 1103 1080 1079
f 1104 1095 1096
f 1080 1081 1097 1096
f 1103 1081 1080
f 1104 1096 1097
f 1081 1082 1098 1097
f 1103 1082 1081
f 1104 1097 1098
f 1082 1083 1099 1098
f 1103 1083 1082
f 1104 1098 1099
f 1083 1084 1100 1099
f 1103 1084 1083
f 1104 1099 1100
f 1084 1085 1101 1100
f 1103 1085 1084
f 1104 1100 1101
f 1085 1086 1102 1101
f 1103 1086 1085
f 1104 1101 1102
f 1086 1071 1087 1102
f 1103 1071 1086
f 1104 1102 1087
o planter_11.45_0.30
g landscape_planter_11.45_0.30
usemtl plant
v 11.71000 0.30000 0.20000
v 11.69021 0.39950 0.20000
v 11.63385 0.48385 0.20000
v 11.54950 0.54021 0.20000
v 11.45000 0.56000 0.20000
v 11.35050 0.54021 0.20000
v 11.26615 0.48385 0.20000
v 11.20979 0.39950 0.20000
v 11.19000 0.30000 0.20000
v 11.20979 0.20050 0.20000
v 11.26615 0.11615 0.20000
v 11.35050 0.05979 0.20000
v 11.45000 0.04000 0.20000
v 11.54950 0.05979 0.20000
v 11.63385 0.11615 0.20000
v 11.69021 0.20050 0.20000
v 11.71000 0.30000 0.70000
v 11.69021 0.39950 0.70000
v 11.63385 0.48385 0.70000
v 11.54950 0.54021 0.70000
v 11.45000 0.56000 0.70000
v 11.35050 0.54021 0.70000
v 11.26615 0.48385 0.70000
v 11.20979 0.39950 0.70000
v 11.19000 0.30000 0.70000
v 11.20979 0.20050 0.70000
v 11.26615 0.11615 0.70000
v 11.35050 0.05979 0.70000
v 11.45000 0.04000 0.70000
v 11.54950 0.05979 0.70000
v 11.63385 0.11615 0.70000
v 11.69021 0.20050 0.70000
v 11.45000 0.30000 0.20000
v 11.45000 0.30000 0.70000
f 1105 1106 1122 1121
f 1137 1106 1105
f 1138 1121 1122
f 1106 1107 1123 1122
f 1137 1107 1106
f 1138 1122 1123
f 1107 1108 1124 1123
f 1137 1108 1107
f 1138 1123 1124
f 1108 1109 1125 1124
f 1137 1109 1108
f 1138 1124 1125
f 1109 1110 1126 1125
f 1137 1110 1109
f 1138 1125 1126
f 1110 1111 1127 1126
f 1137 1111 1110
f 1138 1126 1127
f 1111 1112 1128 1127
f 1137 1112 1111
f 1138 1127 1128
f 1112 1113 1129 1128
f 1137 1113 1112
f 1138 1128 1129
f 1113 1114 1130 1129
f 1137 1114 1113
f 1138 1129 1130
f 1114 1115 1131 1130
f 1137 1115 1114
f 1138 1130 1131
f 1115 1116 1132 1131
f 1137 1116 1115
f 1138 1131 1132
f 1116 1117 1133 1132
f 1137 1117 1116
f 1138 1132 1133
f 1117 1118 1134 1133
f 1137 1118 1117
f 1138 1133 1134
f 1118 1119 1135 1134
f 1137 1119 1118
f 1138 1134 1135
f 1119 1120 1136 1135
f 1137 1120 1119
f 1138 1135 1136
f 1120 1105 1121 1136
f 1137 1105 1120
f 1138 1136 1121
